<svg xmlns="http://www.w3.org/2000/svg" xmlns:xlink="http://www.w3.org/1999/xlink" viewBox="0 0 178.44 24"><defs><style>.cls-1{fill:url(#linear-gradient);}.cls-2{fill:url(#linear-gradient-2);}.cls-3{fill:url(#linear-gradient-3);}.cls-4{fill:url(#linear-gradient-4);}.cls-5{fill:url(#linear-gradient-5);}.cls-6{fill:url(#linear-gradient-6);}.cls-7{fill:url(#linear-gradient-7);}.cls-8{fill:url(#linear-gradient-8);}.cls-9{fill:url(#linear-gradient-9);}.cls-10{fill:url(#linear-gradient-10);}.cls-11{fill:url(#linear-gradient-11);}.cls-12{fill:url(#linear-gradient-12);}</style><linearGradient id="linear-gradient" x1="27.71" y1="2.05" x2="12.05" y2="17.82" gradientUnits="userSpaceOnUse"><stop offset="0" stop-color="#ff931e"/><stop offset="1" stop-color="#ed1c24"/></linearGradient><linearGradient id="linear-gradient-2" x1="13.82" y1="2.35" x2="-1.72" y2="19.46" gradientUnits="userSpaceOnUse"><stop offset="0" stop-color="#1b1464"/><stop offset="0.15" stop-color="#1f3c85"/><stop offset="0.34" stop-color="#2264a6"/><stop offset="0.51" stop-color="#2583c0"/><stop offset="0.69" stop-color="#2799d3"/><stop offset="0.85" stop-color="#29a6de"/><stop offset="1" stop-color="#29abe2"/></linearGradient><linearGradient id="linear-gradient-3" x1="37.28" y1="12.5" x2="53.88" y2="12.5" xlink:href="#linear-gradient-2"/><linearGradient id="linear-gradient-4" x1="54.94" y1="14.22" x2="67.78" y2="14.22" xlink:href="#linear-gradient-2"/><linearGradient id="linear-gradient-5" x1="69.3" y1="14.22" x2="81.96" y2="14.22" xlink:href="#linear-gradient-2"/><linearGradient id="linear-gradient-6" x1="83.44" y1="14.22" x2="96.84" y2="14.22" xlink:href="#linear-gradient-2"/><linearGradient id="linear-gradient-7" x1="98.46" y1="12" x2="111.38" y2="12" xlink:href="#linear-gradient-2"/><linearGradient id="linear-gradient-8" x1="113" y1="14.22" x2="126.71" y2="14.22" xlink:href="#linear-gradient-2"/><linearGradient id="linear-gradient-9" x1="136.83" y1="5.5" x2="136.83" y2="19.5" xlink:href="#linear-gradient"/><linearGradient id="linear-gradient-10" x1="148.51" y1="4.5" x2="148.51" y2="19.5" xlink:href="#linear-gradient"/><linearGradient id="linear-gradient-11" x1="157.77" y1="8.94" x2="157.77" y2="19.5" xlink:href="#linear-gradient"/><linearGradient id="linear-gradient-12" x1="171.98" y1="8.94" x2="171.98" y2="19.5" xlink:href="#linear-gradient"/></defs><g id="Layer_2" data-name="Layer 2"><g id="Layer_1-2" data-name="Layer 1"><path class="cls-1" d="M26.82,15.08a3.54,3.54,0,0,0-2.41-.77,7.31,7.31,0,0,0-1.64.2,8.53,8.53,0,0,1,.11,1.6,3,3,0,0,1-1.49,2.61,6.77,6.77,0,0,1-3.86,1,5.69,5.69,0,0,1-4-1.37A4.4,4.4,0,0,1,12.52,17c-.3,0-.61,0-.92,0H7.38a8.57,8.57,0,0,0,1.07,2.55,8.91,8.91,0,0,0,3.7,3.26A12,12,0,0,0,17.53,24a15.07,15.07,0,0,0,5.3-.87,8.39,8.39,0,0,0,3.6-2.42,5.38,5.38,0,0,0,1.29-3.53A2.61,2.61,0,0,0,26.82,15.08ZM12,10.8V9.13a4.57,4.57,0,0,1,1.17-3.19,3,3,0,0,1,.31-.31,5.41,5.41,0,0,1,3.81-1.35,7.54,7.54,0,0,1,3.07.57h0a5.16,5.16,0,0,1,.8.45,3,3,0,0,1,1.51,2.62,13.58,13.58,0,0,1-.1,1.71,6.45,6.45,0,0,0,1.7.23,3.52,3.52,0,0,0,2.38-.75A2.61,2.61,0,0,0,27.55,7a5.64,5.64,0,0,0-1.28-3.64A8.28,8.28,0,0,0,22.64.89,14.93,14.93,0,0,0,17.33,0a14,14,0,0,0-1.61.09A11.12,11.12,0,0,0,12,1.15,8.72,8.72,0,0,0,8.42,4.38a7.34,7.34,0,0,0-.59,1.15,9,9,0,0,0-.7,3.6v1.69H11.6Z"/><path class="cls-2" d="M19.62,5.6a6.9,6.9,0,0,0-2.29-.34A4.63,4.63,0,0,0,14.58,6a4,4,0,0,1,.5,2.09,3.84,3.84,0,0,1-.91,2.73,2.8,2.8,0,0,1-1.15.73,3.4,3.4,0,0,1-.82.18,1.66,1.66,0,0,1-.32,0h-7V4.55H7.2a7.69,7.69,0,0,1,.39-.69,9.64,9.64,0,0,1,4-3.56H2.47A2.52,2.52,0,0,0,.72.94,2,2,0,0,0,0,2.54V24a6.26,6.26,0,0,0,3.66-.9,3,3,0,0,0,1.25-2.64V16H12l.5,0A9.13,9.13,0,0,0,16,15.08,7,7,0,0,0,19,12.32a8.16,8.16,0,0,0,1-4.16A8.43,8.43,0,0,0,19.62,5.6Z"/><path class="cls-3" d="M41.38,13.37h-.13V19.5h-4V6.08a.5.5,0,0,1,.56-.58H48.69a7.35,7.35,0,0,1,2.41.35,4,4,0,0,1,1.61,1A3.77,3.77,0,0,1,53.6,8.4a7.07,7.07,0,0,1,.28,2.08v1.14a5,5,0,0,1-1.16,3.6,5.2,5.2,0,0,1-3.84,1.2H42.55ZM41.5,9c-.17,0-.25.09-.25.27V13h6.94a1.88,1.88,0,0,0,1.34-.38,1.73,1.73,0,0,0,.39-1.26v-.69a1.73,1.73,0,0,0-.39-1.32A2,2,0,0,0,48.19,9Z"/><path class="cls-4" d="M55.07,16.54h8.64a.54.54,0,0,0,.42-.13.57.57,0,0,0,.12-.41v-.23a.56.56,0,0,0-.08-.32.41.41,0,0,0-.31-.12l-6.56-.56A2.54,2.54,0,0,1,55.51,14a2.58,2.58,0,0,1-.57-1.75v-.85a2.51,2.51,0,0,1,.63-1.81,2.77,2.77,0,0,1,2.08-.67h9.52a.42.42,0,0,1,.48.48v2.37l-3,1.11h-.14V11.69c0-.1,0-.15-.13-.15h-5.5a.58.58,0,0,0-.4.11.54.54,0,0,0-.12.39v.29c0,.18,0,.29.09.34a.66.66,0,0,0,.31.12l6.72.65a3.57,3.57,0,0,1,1.11.25,1.91,1.91,0,0,1,.71.51,1.78,1.78,0,0,1,.38.78,5,5,0,0,1,.1,1.08v.79a2.73,2.73,0,0,1-.66,2,3.2,3.2,0,0,1-2.35.69h-9.7Z"/><path class="cls-5" d="M72.94,13.48H72.8v1.64a1.91,1.91,0,0,0,.31,1.24,1.56,1.56,0,0,0,1.15.33h7.52V19.5H73.61a5.83,5.83,0,0,1-2-.3,3.57,3.57,0,0,1-1.34-.84A3.45,3.45,0,0,1,69.53,17a6.14,6.14,0,0,1-.23-1.73V13.13a6.19,6.19,0,0,1,.23-1.73,3.33,3.33,0,0,1,.75-1.31,3.46,3.46,0,0,1,1.34-.85,5.83,5.83,0,0,1,2-.3h6.1a2.14,2.14,0,0,1,1.73.63A3,3,0,0,1,82,11.52v1a3.06,3.06,0,0,1-.52,1.86,2,2,0,0,1-1.73.7H73.53ZM72.8,13h5.31a.53.53,0,0,0,.6-.61V12a.59.59,0,0,0-.15-.46.62.62,0,0,0-.45-.14H74.26a1.57,1.57,0,0,0-1.13.34,1.72,1.72,0,0,0-.33,1.2Z"/><path class="cls-6" d="M83.44,8.94h3.48v5.91a1.65,1.65,0,0,0,.36,1.22,1.87,1.87,0,0,0,1.25.33h3.18A1.84,1.84,0,0,0,93,16.05a1.66,1.66,0,0,0,.36-1.2V8.94h3.48v6.37A5.8,5.8,0,0,1,96.61,17a3.3,3.3,0,0,1-.74,1.32,3.34,3.34,0,0,1-1.34.84,5.93,5.93,0,0,1-2,.3H87.73a5.75,5.75,0,0,1-2-.3,3.37,3.37,0,0,1-1.33-.84A3.3,3.3,0,0,1,83.67,17a5.8,5.8,0,0,1-.23-1.73Z"/><path class="cls-7" d="M102.75,19.5a5.75,5.75,0,0,1-2-.3,3.37,3.37,0,0,1-1.33-.84A3.3,3.3,0,0,1,98.69,17a5.8,5.8,0,0,1-.23-1.73V13.13a5.87,5.87,0,0,1,.23-1.72,3.17,3.17,0,0,1,.74-1.32,3.28,3.28,0,0,1,1.33-.85,5.75,5.75,0,0,1,2-.3h5.15V4.5h3.48v15Zm4-3.1,1,2.72h.15V11.71h-4.5a2,2,0,0,0-.72.1.81.81,0,0,0-.44.33,1.51,1.51,0,0,0-.23.63,5.24,5.24,0,0,0-.07,1v1.12a1.8,1.8,0,0,0,.32,1.23,1.63,1.63,0,0,0,1.14.32Z"/><path class="cls-8" d="M126.71,15.31a6.14,6.14,0,0,1-.23,1.73,3.45,3.45,0,0,1-.75,1.32,3.53,3.53,0,0,1-1.35.84,5.89,5.89,0,0,1-2,.3H117.3a5.83,5.83,0,0,1-2-.3,3.45,3.45,0,0,1-1.33-.84,3.21,3.21,0,0,1-.75-1.32,5.8,5.8,0,0,1-.23-1.73V13.13a5.87,5.87,0,0,1,.23-1.72,3.08,3.08,0,0,1,.75-1.32,3.35,3.35,0,0,1,1.33-.85,5.83,5.83,0,0,1,2-.3h5.08a5.89,5.89,0,0,1,2,.3,3.43,3.43,0,0,1,1.35.85,3.3,3.3,0,0,1,.75,1.32,6.22,6.22,0,0,1,.23,1.72Zm-5,1.09a1.65,1.65,0,0,0,1.15-.32,1.74,1.74,0,0,0,.33-1.23V13.37a1.91,1.91,0,0,0-.34-1.31,1.55,1.55,0,0,0-1.14-.35H118a1.49,1.49,0,0,0-1.15.36,2,2,0,0,0-.31,1.3v1.48a1.8,1.8,0,0,0,.31,1.23,1.63,1.63,0,0,0,1.15.32Z"/><path class="cls-9" d="M141.54,11.08h-.16V9.19c0-.13-.06-.19-.17-.19h-6.69a2.24,2.24,0,0,0-1.63.48,2.55,2.55,0,0,0-.47,1.77V13.6a2.62,2.62,0,0,0,.46,1.76,2.15,2.15,0,0,0,1.64.51H145V19.5H134.17a7.92,7.92,0,0,1-2.65-.39A4.38,4.38,0,0,1,129.75,18a4.24,4.24,0,0,1-1-1.75,7.85,7.85,0,0,1-.31-2.3V11.06a7.85,7.85,0,0,1,.31-2.3,4.24,4.24,0,0,1,1-1.75,4.38,4.38,0,0,1,1.77-1.12,7.92,7.92,0,0,1,2.65-.39h10.48a.5.5,0,0,1,.56.58V9.71Z"/><path class="cls-10" d="M146.77,19.5V4.5h3.48v15Z"/><path class="cls-11" d="M152,11.56V8.94h9.8a1.86,1.86,0,0,1,1.53.58,2.48,2.48,0,0,1,.49,1.67V19c0,.31-.14.46-.44.46h-9.21a3.56,3.56,0,0,1-1-.14,1.79,1.79,0,0,1-.77-.49,2.36,2.36,0,0,1-.48-.92,5.16,5.16,0,0,1-.16-1.41v-.79a2.94,2.94,0,0,1,.64-2.14,2.44,2.44,0,0,1,1.8-.65h5.36l.66,1.56h.13V12.38a.91.91,0,0,0-.18-.63.71.71,0,0,0-.55-.19Zm8.11,5.32c.14,0,.21-.07.21-.23V15h-4.57a.62.62,0,0,0-.49.17.79.79,0,0,0-.15.52v.46a.78.78,0,0,0,.15.51.59.59,0,0,0,.49.18Z"/><path class="cls-12" d="M165.52,8.94h8.61a5.89,5.89,0,0,1,2,.3,3.18,3.18,0,0,1,2.08,2.16,6.19,6.19,0,0,1,.23,1.73V19.5H175V13.37a1.86,1.86,0,0,0-.35-1.29,1.48,1.48,0,0,0-1.13-.37h-3.77l-.58-1.54H169V19.5h-3.48Z"/></g></g></svg>